<?xml version="1.0" encoding="UTF-8"?>
<!DOCTYPE svg PUBLIC "-//W3C//DTD SVG 1.1//EN" "http://www.w3.org/Graphics/SVG/1.1/DTD/svg11.dtd">
<svg xmlns="http://www.w3.org/2000/svg" version="1.1" width="1213px" height="277px" style="shape-rendering:geometricPrecision; text-rendering:geometricPrecision; image-rendering:optimizeQuality; fill-rule:evenodd; clip-rule:evenodd" xmlns:xlink="http://www.w3.org/1999/xlink">
<g><path style="opacity:1" fill="#5b4dae" d="M -0.5,-0.5 C 22.1667,-0.5 44.8333,-0.5 67.5,-0.5C 66.3167,4.5731 64.8167,9.5731 63,14.5C 60.4117,16.4252 58.5783,18.9252 57.5,22C 59.0657,24.9124 59.899,28.0791 60,31.5C 68.0533,42.3286 75.7199,41.9953 83,30.5C 83.1475,27.4114 83.9808,24.5781 85.5,22C 84.1439,20.4329 83.4772,18.5996 83.5,16.5C 82.1779,16.67 81.0113,16.3366 80,15.5C 78.4691,10.0335 76.6358,4.70014 74.5,-0.5C 137.167,-0.5 199.833,-0.5 262.5,-0.5C 260.435,5.91055 257.935,12.2439 255,18.5C 252.056,29.8683 256.223,34.7017 267.5,33C 270.757,32.2509 273.424,30.5843 275.5,28C 286.177,27.792 288.844,23.292 283.5,14.5C 284.348,12.5914 284.682,10.5914 284.5,8.5C 289.065,9.37975 292.398,7.87975 294.5,4C 294.481,2.16698 293.815,0.666976 292.5,-0.5C 554.167,-0.5 815.833,-0.5 1077.5,-0.5C 1077.18,0.817484 1076.85,2.15082 1076.5,3.5C 1077.93,7.01331 1078.77,10.68 1079,14.5C 1083.59,20.0176 1089.59,22.0176 1097,20.5C 1108.13,23.6263 1114.13,19.6263 1115,8.5C 1115.85,6.99002 1116.68,5.49002 1117.5,4C 1116.96,2.415 1116.29,0.915003 1115.5,-0.5C 1147.83,-0.5 1180.17,-0.5 1212.5,-0.5C 1212.5,91.8333 1212.5,184.167 1212.5,276.5C 1156.83,276.5 1101.17,276.5 1045.5,276.5C 1045.34,274.801 1045.51,273.134 1046,271.5C 1046.92,271.07 1047.75,270.736 1048.5,270.5C 1047.61,267.916 1047.27,265.249 1047.5,262.5C 1044.29,261.472 1042.45,259.138 1042,255.5C 1041.33,254.748 1040.5,254.414 1039.5,254.5C 1030.34,245.6 1020.84,245.266 1011,253.5C 1007.78,258.8 1005.61,264.466 1004.5,270.5C 1004.72,272.693 1005.39,274.693 1006.5,276.5C 875.5,276.5 744.5,276.5 613.5,276.5C 622.825,273.997 632.158,271.163 641.5,268C 644.116,255.847 640.449,245.847 630.5,238C 626.296,234.956 621.629,233.123 616.5,232.5C 611.443,233.713 608.943,237.046 609,242.5C 607.063,251.785 605.23,261.118 603.5,270.5C 603.628,272.955 604.628,274.955 606.5,276.5C 496.833,276.5 387.167,276.5 277.5,276.5C 278.723,273.726 280.223,271.059 282,268.5C 283.239,260.387 279.739,255.554 271.5,254C 260.893,250.72 251.393,252.553 243,259.5C 241.627,261.695 241.294,264.029 242,266.5C 244.099,269.7 245.933,273.033 247.5,276.5C 200.5,276.5 153.5,276.5 106.5,276.5C 106.784,262.615 100.117,256.115 86.5,257C 80.266,263.396 74.266,269.896 68.5,276.5C 45.5,276.5 22.5,276.5 -0.5,276.5C -0.5,184.167 -0.5,91.8333 -0.5,-0.5 Z"/></g>
<g><path style="opacity:1" fill="#4f43a1" d="M 67.5,-0.5 C 69.8333,-0.5 72.1667,-0.5 74.5,-0.5C 76.6358,4.70014 78.4691,10.0335 80,15.5C 81.0113,16.3366 82.1779,16.67 83.5,16.5C 83.4772,18.5996 84.1439,20.4329 85.5,22C 83.9808,24.5781 83.1475,27.4114 83,30.5C 75.7199,41.9953 68.0533,42.3286 60,31.5C 59.899,28.0791 59.0657,24.9124 57.5,22C 58.5783,18.9252 60.4117,16.4252 63,14.5C 64.8167,9.5731 66.3167,4.5731 67.5,-0.5 Z"/></g>
<g><path style="opacity:1" fill="#5043a1" d="M 262.5,-0.5 C 264.833,-0.5 267.167,-0.5 269.5,-0.5C 269.62,0.586173 270.287,1.25284 271.5,1.5C 273.422,1.19921 275.088,0.532541 276.5,-0.5C 281.833,-0.5 287.167,-0.5 292.5,-0.5C 293.815,0.666976 294.481,2.16698 294.5,4C 292.398,7.87975 289.065,9.37975 284.5,8.5C 284.682,10.5914 284.348,12.5914 283.5,14.5C 288.844,23.292 286.177,27.792 275.5,28C 273.424,30.5843 270.757,32.2509 267.5,33C 256.223,34.7017 252.056,29.8683 255,18.5C 257.935,12.2439 260.435,5.91055 262.5,-0.5 Z"/></g>
<g><path style="opacity:1" fill="#594eab" d="M 269.5,-0.5 C 271.833,-0.5 274.167,-0.5 276.5,-0.5C 275.088,0.532541 273.422,1.19921 271.5,1.5C 270.287,1.25284 269.62,0.586173 269.5,-0.5 Z"/></g>
<g><path style="opacity:1" fill="#4f43a1" d="M 1077.5,-0.5 C 1090.17,-0.5 1102.83,-0.5 1115.5,-0.5C 1116.29,0.915003 1116.96,2.415 1117.5,4C 1116.68,5.49002 1115.85,6.99002 1115,8.5C 1114.13,19.6263 1108.13,23.6263 1097,20.5C 1089.59,22.0176 1083.59,20.0176 1079,14.5C 1078.77,10.68 1077.93,7.01331 1076.5,3.5C 1076.85,2.15082 1077.18,0.817484 1077.5,-0.5 Z"/></g>
<g><path style="opacity:1" fill="#5a4eac" d="M 1081.5,2.5 C 1091.85,2.16805 1102.19,2.50138 1112.5,3.5C 1107.33,3.83333 1102.17,4.16667 1097,4.5C 1091.45,4.49456 1086.29,3.82789 1081.5,2.5 Z"/></g>
<g><path style="opacity:1" fill="#5a4dac" d="M 912.5,10.5 C 905.159,9.85365 899.493,12.5203 895.5,18.5C 895.5,16.5 895.5,14.5 895.5,12.5C 899.175,12.2463 902.009,10.5796 904,7.5C 906.159,8.19672 908.326,7.86339 910.5,6.5C 911.795,7.09826 913.128,7.59826 914.5,8C 912.065,8.07476 911.398,8.9081 912.5,10.5 Z"/></g>
<g><path style="opacity:1" fill="#5b4dae" d="M 274.5,5.5 C 276.199,5.33982 277.866,5.50649 279.5,6C 280.255,9.8717 279.755,13.705 278,17.5C 277.218,20.0758 275.718,22.0758 273.5,23.5C 270.4,19.6441 267.067,15.9774 263.5,12.5C 266.431,8.88247 270.098,6.54914 274.5,5.5 Z"/></g>
<g><path style="opacity:1" fill="#5043a4" d="M 1103.5,10.5 C 1097.6,10.88 1091.6,10.88 1085.5,10.5C 1085.5,9.5 1085.5,8.5 1085.5,7.5C 1087.48,8.14947 1089.31,8.14947 1091,7.5C 1092.81,8.42355 1092.64,9.25688 1090.5,10C 1092.35,10.5513 1093.69,9.88466 1094.5,8C 1097.48,7.50204 1100.48,7.33537 1103.5,7.5C 1103.5,8.5 1103.5,9.5 1103.5,10.5 Z"/></g>
<g><path style="opacity:1" fill="#5b4dad" d="M 70.5,6.5 C 71.4972,6.47008 72.1639,6.97008 72.5,8C 73.3084,10.7609 74.3084,13.4276 75.5,16C 72.7728,16.8184 70.1062,16.6517 67.5,15.5C 68.3507,12.4223 69.3507,9.42227 70.5,6.5 Z"/></g>
<g><path style="opacity:1" fill="#4f43a2" d="M 912.5,10.5 C 918.319,12.1541 921.985,15.9874 923.5,22C 923.156,23.3651 922.489,24.5318 921.5,25.5C 922.914,26.624 924.414,27.624 926,28.5C 925.326,34.6631 927.826,38.8298 933.5,41C 934.059,41.7247 934.392,42.5581 934.5,43.5C 926.243,56.2518 916.576,57.5851 905.5,47.5C 903.895,44.6862 902.895,41.6862 902.5,38.5C 900.712,38.7852 899.045,38.4519 897.5,37.5C 894.251,31.5339 893.584,25.2005 895.5,18.5C 899.493,12.5203 905.159,9.85365 912.5,10.5 Z"/></g>
<g><path style="opacity:1" fill="#5b4dae" d="M 1103.5,10.5 C 1106.62,8.8417 1108.96,9.67504 1110.5,13C 1110.17,13.5 1109.83,14 1109.5,14.5C 1101.55,15.6349 1093.55,15.8016 1085.5,15C 1083.02,13.5394 1083.02,12.0394 1085.5,10.5C 1091.6,10.88 1097.6,10.88 1103.5,10.5 Z"/></g>
<g><path style="opacity:1" fill="#594cab" d="M 904.5,15.5 C 906.176,16.1834 906.843,17.5168 906.5,19.5C 909.5,19.8333 910.833,18.5 910.5,15.5C 912.655,15.372 914.655,15.872 916.5,17C 913.774,18.6876 910.941,20.1876 908,21.5C 904.695,25.2935 902.528,29.6269 901.5,34.5C 898.853,29.9557 898.187,27.289 899.5,26.5C 903.692,26.5972 905.025,24.7639 903.5,21C 902.004,20.4926 900.837,20.9926 900,22.5C 899.833,22.1667 899.667,21.8333 899.5,21.5C 900.51,18.8588 902.176,16.8588 904.5,15.5 Z"/></g>
<g><path style="opacity:1" fill="#594baa" d="M 259.5,18.5 C 264.297,18.9543 267.297,21.621 268.5,26.5C 268.023,27.4776 267.357,28.3109 266.5,29C 263.901,29.769 261.401,29.6023 259,28.5C 258.253,25.0764 258.42,21.7431 259.5,18.5 Z"/></g>
<g><path style="opacity:1" fill="#5a4dad" d="M 64.5,22.5 C 66.6073,23.3004 68.7739,23.9671 71,24.5C 73.4716,23.6781 75.9716,23.0114 78.5,22.5C 79.704,28.7795 77.3707,32.7795 71.5,34.5C 66.7959,33.4558 64.1292,30.4558 63.5,25.5C 63.685,24.4163 64.0183,23.4163 64.5,22.5 Z"/></g>
<g><path style="opacity:1" fill="#4f43a1" d="M 513.5,25.5 C 523.874,23.1179 531.708,26.4513 537,35.5C 537.732,39.6876 538.899,43.6876 540.5,47.5C 539.517,52.9673 537.85,58.134 535.5,63C 525.934,64.6134 516.267,64.9468 506.5,64C 504.448,63.0701 502.948,61.5701 502,59.5C 498.869,49.6712 500.203,40.3379 506,31.5C 508.114,28.8792 510.614,26.8792 513.5,25.5 Z"/></g>
<g><path style="opacity:1" fill="#5b4dae" d="M 515.5,29.5 C 525.244,27.9961 531.244,31.9961 533.5,41.5C 524.525,42.4982 515.525,42.8315 506.5,42.5C 507.198,36.4846 510.198,32.1513 515.5,29.5 Z"/></g>
<g><path style="opacity:1" fill="#5a4dad" d="M 921.5,34.5 C 922.967,38.323 925.3,41.6563 928.5,44.5C 924.138,49.674 918.804,50.8406 912.5,48C 904.57,39.9382 904.57,31.9382 912.5,24C 913.448,23.5172 914.448,23.3505 915.5,23.5C 917.262,27.3617 919.262,31.0283 921.5,34.5 Z"/></g>
<g><path style="opacity:1" fill="#5144a3" d="M 911.5,27.5 C 914.166,27.0658 915.333,28.0658 915,30.5C 911.403,32.0661 910.237,31.0661 911.5,27.5 Z"/></g>
<g><path style="opacity:1" fill="#5244a4" d="M 921.5,34.5 C 921.5,35.8333 921.5,37.1667 921.5,38.5C 920.167,38.5 918.833,38.5 917.5,38.5C 917.5,37.1667 917.5,35.8333 917.5,34.5C 918.833,34.5 920.167,34.5 921.5,34.5 Z"/></g>
<g><path style="opacity:1" fill="#5042a2" d="M 909.5,35.5 C 911.308,35.4914 912.975,35.9914 914.5,37C 915.451,37.7175 915.617,38.5509 915,39.5C 910.848,41.4919 909.015,40.1585 909.5,35.5 Z"/></g>
<g><path style="opacity:1" fill="#4f43a2" d="M 367.5,42.5 C 376.41,42.2392 384.243,44.9059 391,50.5C 391.667,53.1667 391.667,55.8333 391,58.5C 385.893,67.8774 380.393,77.044 374.5,86C 370.418,87.2931 367.251,86.1265 365,82.5C 360.857,74.4095 356.523,66.4095 352,58.5C 350.773,54.4087 351.606,50.9087 354.5,48C 358.383,44.8791 362.717,43.0457 367.5,42.5 Z"/></g>
<g><path style="opacity:1" fill="#5143a3" d="M 919.5,41.5 C 921.635,41.147 922.968,41.9803 923.5,44C 922.714,45.9876 921.214,47.1543 919,47.5C 917.5,47.3333 916.667,46.5 916.5,45C 917.071,43.4009 918.071,42.2342 919.5,41.5 Z"/></g>
<g><path style="opacity:1" fill="#4f43a1" d="M 181.5,46.5 C 195.388,47.2278 201.555,54.5611 200,68.5C 194.295,75.3862 188.462,82.2195 182.5,89C 166.745,91.5842 159.578,84.7508 161,68.5C 167.756,60.9174 174.589,53.5841 181.5,46.5 Z"/></g>
<g><path style="opacity:1" fill="#594dac" d="M 365.5,47.5 C 373.622,46.0696 380.622,48.0696 386.5,53.5C 386.167,53.8333 385.833,54.1667 385.5,54.5C 375.947,47.9238 366.447,47.9238 357,54.5C 355.274,53.3521 355.441,52.1855 357.5,51C 360.309,49.9066 362.976,48.7399 365.5,47.5 Z"/></g>
<g><path style="opacity:1" fill="#5a4eac" d="M 504.5,47.5 C 514.855,47.1681 525.188,47.5014 535.5,48.5C 530.333,48.8333 525.167,49.1667 520,49.5C 514.454,49.4946 509.288,48.8279 504.5,47.5 Z"/></g>
<g><path style="opacity:1" fill="#594cab" d="M 185.5,59.5 C 185.5,58.8333 185.5,58.1667 185.5,57.5C 187.186,54.9953 189.519,54.162 192.5,55C 194.098,60.1698 193.264,60.6698 190,56.5C 188.877,58.0997 187.377,59.0997 185.5,59.5 Z"/></g>
<g><path style="opacity:1" fill="#5b4dac" d="M 365.5,54.5 C 370.248,54.2748 374.915,54.7748 379.5,56C 381.813,56.6409 383.48,57.9743 384.5,60C 380.611,66.2769 377.111,72.7769 374,79.5C 372.604,81.5268 370.938,81.8602 369,80.5C 365.691,73.5782 362.191,66.7449 358.5,60C 360.444,57.6919 362.777,55.8586 365.5,54.5 Z"/></g>
<g><path style="opacity:1" fill="#5a4dad" d="M 509.5,54.5 C 511.607,55.3004 513.774,55.9671 516,56.5C 517.812,56.5066 519.312,55.84 520.5,54.5C 523.5,57.1667 526.5,57.1667 529.5,54.5C 533.253,55.6403 533.919,57.4736 531.5,60C 523.833,60.6667 516.167,60.6667 508.5,60C 507.643,59.3109 506.977,58.4776 506.5,57.5C 507.77,56.7124 508.77,55.7124 509.5,54.5 Z"/></g>
<g><path style="opacity:1" fill="#594cab" d="M 182.5,51.5 C 183.239,51.369 183.906,51.5357 184.5,52C 178.059,59.032 171.726,66.1987 165.5,73.5C 164.417,72.635 164.251,71.635 165,70.5C 170.728,63.9444 176.561,57.6111 182.5,51.5 Z"/></g>
<g><path style="opacity:1" fill="#5244a3" d="M 369.5,56.5 C 372.166,56.0658 373.333,57.0658 373,59.5C 370.342,60.694 369.176,59.694 369.5,56.5 Z"/></g>
<g><path style="opacity:1" fill="#5143a2" d="M 362.5,58.5 C 363.5,58.5 364.5,58.5 365.5,58.5C 365.5,59.8333 365.5,61.1667 365.5,62.5C 364.5,62.5 363.5,62.5 362.5,62.5C 362.5,61.1667 362.5,59.8333 362.5,58.5 Z"/></g>
<g><path style="opacity:1" fill="#5143a2" d="M 377.5,58.5 C 378.5,58.5 379.5,58.5 380.5,58.5C 380.5,59.8333 380.5,61.1667 380.5,62.5C 379.5,62.5 378.5,62.5 377.5,62.5C 377.5,61.1667 377.5,59.8333 377.5,58.5 Z"/></g>
<g><path style="opacity:1" fill="#4f43a1" d="M 1189.5,59.5 C 1191.2,59.3398 1192.87,59.5065 1194.5,60C 1198.71,61.5095 1202.54,63.6762 1206,66.5C 1207.55,69.8217 1208.72,73.3217 1209.5,77C 1208.75,79.9922 1207.59,82.8256 1206,85.5C 1200.14,91.3604 1194.31,97.1937 1188.5,103C 1183.02,103.509 1178.02,102.176 1173.5,99C 1170.89,93.756 1169.39,88.256 1169,82.5C 1170.7,79.98 1172.53,77.6467 1174.5,75.5C 1179.16,69.8389 1184.16,64.5055 1189.5,59.5 Z"/></g>
<g><path style="opacity:1" fill="#4f43a2" d="M 1008.5,63.5 C 1011.2,63.933 1013.36,65.2663 1015,67.5C 1019.29,76.3831 1023.96,85.0497 1029,93.5C 1029.69,95.5675 1029.52,97.5675 1028.5,99.5C 1023.5,105.676 1017,108.343 1009,107.5C 1005.11,107.406 1001.28,106.906 997.5,106C 994.157,104.078 991.323,101.578 989,98.5C 988.245,95.6967 988.578,93.0301 990,90.5C 994.767,82.6299 999.267,74.6299 1003.5,66.5C 1005.14,65.3037 1006.81,64.3037 1008.5,63.5 Z"/></g>
<g><path style="opacity:1" fill="#5b4dac" d="M 1189.5,59.5 C 1184.16,64.5055 1179.16,69.8389 1174.5,75.5C 1174.86,71.6159 1176.19,68.1159 1178.5,65C 1177.83,64.6667 1177.17,64.3333 1176.5,64C 1178.81,63.5034 1181.14,63.3367 1183.5,63.5C 1183.16,58.6687 1185.16,57.3354 1189.5,59.5 Z"/></g>
<g><path style="opacity:1" fill="#574ba9" d="M 188.5,62.5 C 189.239,62.369 189.906,62.5357 190.5,63C 187.979,65.2198 185.812,67.7198 184,70.5C 183.685,69.0922 184.018,67.7589 185,66.5C 186.376,65.2949 187.542,63.9616 188.5,62.5 Z"/></g>
<g><path style="opacity:1" fill="#5246a4" d="M 366.5,66.5 C 367.5,66.5 368.5,66.5 369.5,66.5C 369.725,68.7159 368.892,70.3826 367,71.5C 365.481,69.8608 365.314,68.1942 366.5,66.5 Z"/></g>
<g><path style="opacity:1" fill="#5446a5" d="M 373.5,66.5 C 377.491,66.6478 378.324,68.3145 376,71.5C 374.108,70.3826 373.275,68.7159 373.5,66.5 Z"/></g>
<g><path style="opacity:1" fill="#594dac" d="M 1190.5,64.5 C 1192.03,64.5173 1192.53,65.184 1192,66.5C 1186.23,73.0246 1180.23,79.3579 1174,85.5C 1173.68,84.0922 1174.02,82.7589 1175,81.5C 1180.64,76.18 1185.81,70.5134 1190.5,64.5 Z"/></g>
<g><path style="opacity:1" fill="#4f43a2" d="M 738.5,87.5 C 740.603,92.251 741.603,97.251 741.5,102.5C 740.883,104.229 739.883,105.729 738.5,107C 731.966,108.572 725.632,110.405 719.5,112.5C 714.201,114.166 708.867,114.499 703.5,113.5C 701.08,108.553 701.08,103.553 703.5,98.5C 704.656,92.1232 705.989,85.7899 707.5,79.5C 707.701,72.7898 711.034,69.9565 717.5,71C 726.725,73.7316 733.725,79.2316 738.5,87.5 Z"/></g>
<g><path style="opacity:1" fill="#5449a7" d="M 185.5,57.5 C 185.5,58.1667 185.5,58.8333 185.5,59.5C 182.643,64.8753 178.643,69.2086 173.5,72.5C 171.347,75.1396 170.013,78.1396 169.5,81.5C 170.675,81.281 171.675,81.6143 172.5,82.5C 167.916,84.0285 166.416,82.3618 168,77.5C 173.355,70.3186 179.188,63.6519 185.5,57.5 Z"/></g>
<g><path style="opacity:1" fill="#564aa8" d="M 1196.5,66.5 C 1203.43,68.7313 1203.93,72.0647 1198,76.5C 1197.83,74.322 1198.67,72.4886 1200.5,71C 1199.29,69.4222 1197.96,69.2555 1196.5,70.5C 1190.15,76.5149 1184.15,82.8482 1178.5,89.5C 1177.75,90.7362 1177.42,92.0695 1177.5,93.5C 1179.78,93.3921 1181.78,92.5588 1183.5,91C 1186.57,88.5966 1188.9,85.5966 1190.5,82C 1190.83,81.8333 1191.17,81.6667 1191.5,81.5C 1192.52,82.0016 1192.69,82.6683 1192,83.5C 1188.34,88.4947 1184.01,92.828 1179,96.5C 1175.06,94.1664 1174.56,91.1664 1177.5,87.5C 1182.2,83.2935 1186.7,78.9602 1191,74.5C 1193.08,71.9348 1194.91,69.2682 1196.5,66.5 Z"/></g>
<g><path style="opacity:1" fill="#584dab" d="M 179.5,72.5 C 180.525,72.8966 180.692,73.5632 180,74.5C 178.667,75.8333 177.333,77.1667 176,78.5C 176.357,76.1304 177.524,74.1304 179.5,72.5 Z"/></g>
<g><path style="opacity:1" fill="#5244a3" d="M 369.5,75.5 C 370.833,75.5 372.167,75.5 373.5,75.5C 373.778,77.3464 373.111,78.6798 371.5,79.5C 369.889,78.6798 369.222,77.3464 369.5,75.5 Z"/></g>
<g><path style="opacity:1" fill="#5a4dab" d="M 713.5,75.5 C 725.849,77.3439 733.682,84.3439 737,96.5C 737.82,98.728 737.487,100.728 736,102.5C 735.461,99.4715 734.794,96.4715 734,93.5C 731.752,90.672 729.752,87.672 728,84.5C 723.252,81.0589 718.418,78.0589 713.5,75.5 Z"/></g>
<g><path style="opacity:1" fill="#5a4dac" d="M 707.5,79.5 C 705.989,85.7899 704.656,92.1232 703.5,98.5C 702.732,97.7375 702.232,96.7375 702,95.5C 701.667,96.5 701.333,97.5 701,98.5C 696.392,94.6444 697.059,91.6444 703,89.5C 703.455,86.1464 703.955,82.8131 704.5,79.5C 705.5,79.5 706.5,79.5 707.5,79.5 Z"/></g>
<g><path style="opacity:1" fill="#5a4dac" d="M 1007.5,68.5 C 1008.82,68.33 1009.99,68.6634 1011,69.5C 1014.32,75.4914 1017.65,81.4914 1021,87.5C 1021.8,89.2588 1021.63,90.9255 1020.5,92.5C 1014.6,96.6558 1008.26,97.4891 1001.5,95C 999.154,93.9872 997.487,92.3206 996.5,90C 1000.31,82.8737 1003.98,75.7071 1007.5,68.5 Z"/></g>
<g><path style="opacity:1" fill="#5244a3" d="M 1004.5,79.5 C 1008.34,80.5678 1008.51,82.2345 1005,84.5C 1003.21,82.9769 1003.04,81.3102 1004.5,79.5 Z"/></g>
<g><path style="opacity:1" fill="#5345a6" d="M 1011.5,79.5 C 1012.5,79.5 1013.5,79.5 1014.5,79.5C 1014.5,80.8333 1014.5,82.1667 1014.5,83.5C 1013.5,83.5 1012.5,83.5 1011.5,83.5C 1011.5,82.1667 1011.5,80.8333 1011.5,79.5 Z"/></g>
<g><path style="opacity:1" fill="#584dab" d="M 194.5,63.5 C 196.344,64.2039 196.844,65.5372 196,67.5C 190.162,73.005 184.662,78.8384 179.5,85C 178.5,85.6667 177.5,85.6667 176.5,85C 183.081,78.2583 189.081,71.0916 194.5,63.5 Z"/></g>
<g><path style="opacity:1" fill="#4f43a1" d="M 850.5,116.5 C 840.886,117.449 831.219,117.782 821.5,117.5C 818.325,117.16 816.159,115.493 815,112.5C 815.323,105.454 817.49,98.954 821.5,93C 823.844,92.1628 825.844,90.8294 827.5,89C 828.793,88.51 830.127,88.3433 831.5,88.5C 831.5,87.1667 831.5,85.8333 831.5,84.5C 835.241,83.5985 837.241,84.9319 837.5,88.5C 842.264,89.139 846.097,91.4724 849,95.5C 851.075,100.32 852.575,105.32 853.5,110.5C 853.333,112.978 852.333,114.978 850.5,116.5 Z"/></g>
<g><path style="opacity:1" fill="#594dab" d="M 1202.5,77.5 C 1204.23,77.8425 1204.73,78.8425 1204,80.5C 1198.27,87.303 1192.11,93.6363 1185.5,99.5C 1184.17,98.5 1184.17,97.5 1185.5,96.5C 1191.88,90.7093 1197.54,84.3759 1202.5,77.5 Z"/></g>
<g><path style="opacity:1" fill="#594eac" d="M 738.5,87.5 C 742.121,88.6282 744.121,91.1282 744.5,95C 744.161,97.8667 743.161,100.367 741.5,102.5C 741.603,97.251 740.603,92.251 738.5,87.5 Z"/></g>
<g><path style="opacity:1" fill="#5143a2" d="M 1015.5,88.5 C 1016.5,88.5 1017.5,88.5 1018.5,88.5C 1018.5,89.5 1018.5,90.5 1018.5,91.5C 1017.5,91.5 1016.5,91.5 1015.5,91.5C 1015.5,90.5 1015.5,89.5 1015.5,88.5 Z"/></g>
<g><path style="opacity:1" fill="#5143a2" d="M 1007.5,90.5 C 1008.5,90.5 1009.5,90.5 1010.5,90.5C 1010.5,91.8333 1010.5,93.1667 1010.5,94.5C 1009.5,94.5 1008.5,94.5 1007.5,94.5C 1007.5,93.1667 1007.5,91.8333 1007.5,90.5 Z"/></g>
<g><path style="opacity:1" fill="#5b4dac" d="M 711.5,82.5 C 724.068,84.4038 730.735,91.7372 731.5,104.5C 728.399,104.692 725.399,105.358 722.5,106.5C 718.594,101.705 714.428,101.371 710,105.5C 709.506,107.134 709.34,108.801 709.5,110.5C 708.5,110.5 707.5,110.5 706.5,110.5C 705.607,104.959 707.44,100.625 712,97.5C 712.789,93.9843 712.289,90.651 710.5,87.5C 711.046,85.8653 711.38,84.1986 711.5,82.5 Z"/></g>
<g><path style="opacity:1" fill="#5042a2" d="M 718.5,89.5 C 725.807,89.9454 727.807,93.4454 724.5,100C 719.543,101.691 716.543,100.024 715.5,95C 716.124,92.9149 717.124,91.0816 718.5,89.5 Z"/></g>
<g><path style="opacity:1" fill="#5b4dae" d="M 847.5,106.5 C 838.833,106.5 830.167,106.5 821.5,106.5C 821.5,105.5 821.5,104.5 821.5,103.5C 825.976,91.6941 833.476,89.3608 844,96.5C 846.431,99.417 847.598,102.75 847.5,106.5 Z"/></g>
<g><path style="opacity:1" fill="#584dab" d="M 992.5,94.5 C 999.509,100.136 1007.51,101.969 1016.5,100C 1019.16,98.726 1021.66,97.226 1024,95.5C 1024.17,96 1024.33,96.5 1024.5,97C 1014.3,105.4 1003.97,105.567 993.5,97.5C 992.614,96.675 992.281,95.675 992.5,94.5 Z"/></g>
<g><path style="opacity:1" fill="#4f43a2" d="M 627.5,104.5 C 639.268,104.545 645.935,110.378 647.5,122C 647.845,125.474 646.679,128.307 644,130.5C 639.708,134.946 635.541,139.446 631.5,144C 627.673,148.699 623.006,149.699 617.5,147C 611.378,143.425 608.045,138.092 607.5,131C 607.494,128.7 607.994,126.534 609,124.5C 615.005,117.663 621.171,110.996 627.5,104.5 Z"/></g>
<g><path style="opacity:1" fill="#5548a7" d="M 821.5,103.5 C 821.5,104.5 821.5,105.5 821.5,106.5C 830.167,106.5 838.833,106.5 847.5,106.5C 838.682,107.493 829.682,107.827 820.5,107.5C 820.232,105.901 820.566,104.568 821.5,103.5 Z"/></g>
<g><path style="opacity:1" fill="#584dab" d="M 820.5,112.5 C 829.657,111.342 838.991,111.176 848.5,112C 844.007,113.141 839.34,113.641 834.5,113.5C 829.753,113.473 825.087,113.14 820.5,112.5 Z"/></g>
<g><path style="opacity:1" fill="#584dab" d="M 719.5,112.5 C 719.5,113.5 719.5,114.5 719.5,115.5C 717.08,115.292 714.747,115.626 712.5,116.5C 709.891,115.77 707.224,115.27 704.5,115C 703.944,114.617 703.611,114.117 703.5,113.5C 708.867,114.499 714.201,114.166 719.5,112.5 Z"/></g>
<g><path style="opacity:1" fill="#5a4cac" d="M 636.5,111.5 C 641.466,113.749 641.799,116.749 637.5,120.5C 637.167,120.167 636.833,119.833 636.5,119.5C 638.086,117.827 638.753,115.827 638.5,113.5C 637.127,113.657 635.793,113.49 634.5,113C 635.416,112.722 636.082,112.222 636.5,111.5 Z"/></g>
<g><path style="opacity:1" fill="#594dac" d="M 630.5,108.5 C 631.043,108.56 631.376,108.893 631.5,109.5C 625.536,116.799 619.203,123.799 612.5,130.5C 612.167,130.167 611.833,129.833 611.5,129.5C 617.543,122.13 623.876,115.13 630.5,108.5 Z"/></g>
<g><path style="opacity:1" fill="#5749a8" d="M 850.5,116.5 C 850.389,117.117 850.056,117.617 849.5,118C 839.991,118.824 830.657,118.658 821.5,117.5C 831.219,117.782 840.886,117.449 850.5,116.5 Z"/></g>
<g><path style="opacity:1" fill="#554aa8" d="M 631.5,116.5 C 632.465,117.721 632.298,119.054 631,120.5C 626.283,123.716 622.45,127.716 619.5,132.5C 618.479,131.998 618.312,131.332 619,130.5C 623.003,125.665 627.17,120.998 631.5,116.5 Z"/></g>
<g><path style="opacity:1" fill="#4f43a1" d="M 449.5,108.5 C 453.025,108.346 455.859,109.679 458,112.5C 463.752,121.571 468.585,131.071 472.5,141C 471.666,143.848 470,146.182 467.5,148C 455.991,154.447 444.824,153.947 434,146.5C 432.743,144.487 431.909,142.321 431.5,140C 436.052,131.728 440.219,123.228 444,114.5C 445.699,112.304 447.533,110.304 449.5,108.5 Z"/></g>
<g><path style="opacity:1" fill="#5b4dac" d="M 450.5,113.5 C 453.091,114.254 454.924,115.921 456,118.5C 458.85,124.01 461.684,129.51 464.5,135C 456.132,143.453 447.465,143.62 438.5,135.5C 442.541,128.076 446.541,120.743 450.5,113.5 Z"/></g>
<g><path style="opacity:1" fill="#5244a3" d="M 446.5,124.5 C 447.5,124.5 448.5,124.5 449.5,124.5C 449.5,125.833 449.5,127.167 449.5,128.5C 448.5,128.5 447.5,128.5 446.5,128.5C 446.5,127.167 446.5,125.833 446.5,124.5 Z"/></g>
<g><path style="opacity:1" fill="#5143a3" d="M 454.5,124.5 C 455.5,124.5 456.5,124.5 457.5,124.5C 457.426,128.541 456.093,129.208 453.5,126.5C 453.863,125.817 454.196,125.15 454.5,124.5 Z"/></g>
<g><path style="opacity:1" fill="#5042a1" d="M 450.5,116.5 C 451.5,116.5 452.5,116.5 453.5,116.5C 452.754,120.31 451.754,120.31 450.5,116.5 Z"/></g>
<g><path style="opacity:1" fill="#594cab" d="M 642.5,120.5 C 643.598,121.601 643.765,122.934 643,124.5C 637.656,130.676 632.156,136.676 626.5,142.5C 625.5,143.833 624.5,143.833 623.5,142.5C 630.545,135.788 636.878,128.454 642.5,120.5 Z"/></g>
<g><path style="opacity:1" fill="#4f43a2" d="M 101.5,127.5 C 109.413,127.674 112.246,131.674 110,139.5C 108.008,149.639 105.508,159.639 102.5,169.5C 95.2087,172.471 88.542,171.305 82.5,166C 74.686,158.874 70.8527,150.041 71,139.5C 72.5265,136.422 75.0265,134.588 78.5,134C 86.4354,132.293 94.1021,130.126 101.5,127.5 Z"/></g>
<g><path style="opacity:1" fill="#4f43a2" d="M 274.5,130.5 C 283.506,130.334 292.506,130.5 301.5,131C 303.105,132.36 304.605,133.86 306,135.5C 306.518,140.333 307.185,145 308,149.5C 306.211,153.407 304.544,157.407 303,161.5C 301.167,164.667 298.667,167.167 295.5,169C 284.883,171.69 276.716,168.524 271,159.5C 270.145,155.091 268.979,150.758 267.5,146.5C 268.807,142.939 269.64,139.273 270,135.5C 271.059,133.341 272.559,131.674 274.5,130.5 Z"/></g>
<g><path style="opacity:1" fill="#5549a8" d="M 630.5,125.5 C 631.239,125.369 631.906,125.536 632.5,126C 628.577,132.092 623.577,136.925 617.5,140.5C 614.918,140.253 614.085,138.92 615,136.5C 615.837,138.007 617.004,138.507 618.5,138C 623.305,134.514 627.305,130.347 630.5,125.5 Z"/></g>
<g><path style="opacity:1" fill="#594eac" d="M 279.5,134.5 C 285.509,134.334 291.509,134.501 297.5,135C 302.74,136.844 302.574,138.678 297,140.5C 293.816,137.894 290.649,137.894 287.5,140.5C 284.494,137.943 281.494,137.943 278.5,140.5C 273.249,137.657 273.582,135.657 279.5,134.5 Z"/></g>
<g><path style="opacity:1" fill="#5244a3" d="M 442.5,132.5 C 445.5,132.167 446.833,133.5 446.5,136.5C 445.167,136.5 443.833,136.5 442.5,136.5C 442.5,135.167 442.5,133.833 442.5,132.5 Z"/></g>
<g><path style="opacity:1" fill="#5244a4" d="M 458.5,132.5 C 459.5,132.5 460.5,132.5 461.5,132.5C 461.5,133.833 461.5,135.167 461.5,136.5C 460.167,136.5 458.833,136.5 457.5,136.5C 457.433,135.041 457.766,133.708 458.5,132.5 Z"/></g>
<g><path style="opacity:1" fill="#5042a1" d="M 450.5,135.5 C 451.5,135.5 452.5,135.5 453.5,135.5C 453.5,136.5 453.5,137.5 453.5,138.5C 452.5,138.5 451.5,138.5 450.5,138.5C 450.5,137.5 450.5,136.5 450.5,135.5 Z"/></g>
<g><path style="opacity:1" fill="#584dab" d="M 436.5,140.5 C 439.004,142.144 441.671,143.644 444.5,145C 449.167,145.667 453.833,145.667 458.5,145C 461.534,143.626 464.534,142.626 467.5,142C 458.831,149.25 449.498,150.25 439.5,145C 437.561,144.092 436.561,142.592 436.5,140.5 Z"/></g>
<g><path style="opacity:1" fill="#594dab" d="M 272.5,145.5 C 282.855,145.168 293.188,145.501 303.5,146.5C 298.333,146.833 293.167,147.167 288,147.5C 282.454,147.495 277.288,146.828 272.5,145.5 Z"/></g>
<g><path style="opacity:1" fill="#4f43a2" d="M 1116.5,167.5 C 1114.7,167.935 1112.7,167.935 1110.5,167.5C 1106.54,165.205 1103.21,162.205 1100.5,158.5C 1095.26,162.858 1092.93,168.524 1093.5,175.5C 1096.17,175.5 1098.83,175.5 1101.5,175.5C 1104.85,175.335 1108.18,175.502 1111.5,176C 1112.25,176.671 1112.59,177.504 1112.5,178.5C 1109.9,184.64 1106.57,184.973 1102.5,179.5C 1100.59,180.348 1098.59,180.682 1096.5,180.5C 1096.66,182.857 1096.5,185.19 1096,187.5C 1094.56,191.732 1092.23,192.399 1089,189.5C 1087.8,187.323 1087.3,184.989 1087.5,182.5C 1084.39,182.606 1081.72,181.606 1079.5,179.5C 1079.23,177.179 1079.9,175.179 1081.5,173.5C 1084.09,172.52 1086.75,172.187 1089.5,172.5C 1089.81,169.615 1089.47,166.948 1088.5,164.5C 1087.27,161.865 1087.27,159.199 1088.5,156.5C 1094.3,154.508 1099.8,151.841 1105,148.5C 1117.97,145.371 1122.64,150.371 1119,163.5C 1118.8,165.32 1117.97,166.653 1116.5,167.5 Z"/></g>
<g><path style="opacity:1" fill="#5b4eae" d="M 274.5,152.5 C 283.5,152.5 292.5,152.5 301.5,152.5C 298.236,164.298 290.902,167.798 279.5,163C 276.777,159.997 275.111,156.497 274.5,152.5 Z"/></g>
<g><path style="opacity:1" fill="#5649a8" d="M 1114.5,153.5 C 1113.26,152.588 1111.93,152.421 1110.5,153C 1111.38,154.356 1111.71,155.856 1111.5,157.5C 1109.9,157.232 1108.57,157.566 1107.5,158.5C 1104.32,154.243 1105.49,151.91 1111,151.5C 1112.68,151.608 1113.85,152.275 1114.5,153.5 Z"/></g>
<g><path style="opacity:1" fill="#5a4ead" d="M 1114.5,153.5 C 1115.87,156.97 1115.37,160.303 1113,163.5C 1110.67,162.336 1108.84,160.67 1107.5,158.5C 1108.57,157.566 1109.9,157.232 1111.5,157.5C 1111.71,155.856 1111.38,154.356 1110.5,153C 1111.93,152.421 1113.26,152.588 1114.5,153.5 Z"/></g>
<g><path style="opacity:1" fill="#5a4dad" d="M 102.5,132.5 C 104.59,132.45 105.923,133.45 106.5,135.5C 106.395,139.603 104.395,142.27 100.5,143.5C 100.167,145 99.8333,146.5 99.5,148C 103.442,162.007 99.4418,164.34 87.5,155C 83.6327,150.065 81.7994,144.565 82,138.5C 86.769,135.632 90.9357,136.132 94.5,140C 100.128,140.877 102.794,138.377 102.5,132.5 Z"/></g>
<g><path style="opacity:1" fill="#4f43a2" d="M 89.5,141.5 C 95.7707,142.374 97.604,145.707 95,151.5C 89.9419,154.251 86.7752,152.751 85.5,147C 86.4825,144.85 87.8158,143.017 89.5,141.5 Z"/></g>
<g><path style="opacity:1" fill="#5b4dae" d="M 1110.5,167.5 C 1108.48,171.331 1105.48,173.998 1101.5,175.5C 1098.83,175.5 1096.17,175.5 1093.5,175.5C 1092.93,168.524 1095.26,162.858 1100.5,158.5C 1103.21,162.205 1106.54,165.205 1110.5,167.5 Z"/></g>
<g><path style="opacity:1" fill="#594dab" d="M 75.5,141.5 C 77.6007,145.61 79.434,149.944 81,154.5C 86.1063,160.45 92.273,164.45 99.5,166.5C 91.9116,166.891 85.7449,163.891 81,157.5C 77.184,152.864 75.3507,147.531 75.5,141.5 Z"/></g>
<g><path style="opacity:1" fill="#5b4dac" d="M 1088.5,164.5 C 1089.47,166.948 1089.81,169.615 1089.5,172.5C 1086.75,172.187 1084.09,172.52 1081.5,173.5C 1079.9,175.179 1079.23,177.179 1079.5,179.5C 1078.52,179.189 1077.86,178.522 1077.5,177.5C 1079.05,170.666 1082.71,166.332 1088.5,164.5 Z"/></g>
<g><path style="opacity:1" fill="#5042a3" d="M 1110.5,167.5 C 1112.7,167.935 1114.7,167.935 1116.5,167.5C 1114.43,170.973 1113.1,174.639 1112.5,178.5C 1112.59,177.504 1112.25,176.671 1111.5,176C 1108.18,175.502 1104.85,175.335 1101.5,175.5C 1105.48,173.998 1108.48,171.331 1110.5,167.5 Z"/></g>
<g><path style="opacity:1" fill="#4f43a2" d="M 164.5,212.5 C 161.821,210.139 160.488,207.139 160.5,203.5C 160.876,198.94 161.876,194.607 163.5,190.5C 164.664,185.784 166.664,181.284 169.5,177C 173.025,176.342 175.859,177.509 178,180.5C 179.699,179.594 181.533,179.261 183.5,179.5C 183.335,176.482 183.502,173.482 184,170.5C 186.333,167.833 188.667,167.833 191,170.5C 192.202,172.677 192.702,175.011 192.5,177.5C 196.733,176.742 199.399,178.409 200.5,182.5C 198.628,186.77 195.295,188.437 190.5,187.5C 190.375,191.793 191.042,195.96 192.5,200C 191.001,205.468 187.334,207.801 181.5,207C 176.783,211.688 171.116,213.522 164.5,212.5 Z"/></g>
<g><path style="opacity:1" fill="#4e43a1" d="M 909.5,178.5 C 912.97,179.288 915.637,181.288 917.5,184.5C 919.624,185.149 921.624,185.983 923.5,187C 928.948,187.139 934.281,186.806 939.5,186C 942.125,188.196 943.125,191.03 942.5,194.5C 945.762,194.299 947.762,195.799 948.5,199C 946.964,205.361 943.631,210.528 938.5,214.5C 937.548,216.045 937.215,217.712 937.5,219.5C 931.242,219.81 925.076,219.476 919,218.5C 914.584,213.398 910.918,207.731 908,201.5C 906.672,196.662 908.506,194.329 913.5,194.5C 913.318,192.409 913.652,190.409 914.5,188.5C 911.738,185.643 910.071,182.309 909.5,178.5 Z"/></g>
<g><path style="opacity:1" fill="#5b4dae" d="M 177.5,184.5 C 180.167,184.5 182.833,184.5 185.5,184.5C 186.862,191.712 184.862,197.712 179.5,202.5C 177.047,199.759 174.714,196.925 172.5,194C 171.552,193.517 170.552,193.351 169.5,193.5C 170.738,189.26 173.405,186.26 177.5,184.5 Z"/></g>
<g><path style="opacity:1" fill="#584dab" d="M 163.5,190.5 C 161.876,194.607 160.876,198.94 160.5,203.5C 160.488,207.139 161.821,210.139 164.5,212.5C 163.265,212.721 162.265,213.388 161.5,214.5C 160.808,213.975 160.308,213.308 160,212.5C 159.5,205.508 159.334,198.508 159.5,191.5C 160.959,191.567 162.292,191.234 163.5,190.5 Z"/></g>
<g><path style="opacity:1" fill="#584dab" d="M 918.5,190.5 C 919.5,190.5 920.5,190.5 921.5,190.5C 921.5,191.833 921.5,193.167 921.5,194.5C 920.5,194.5 919.5,194.5 918.5,194.5C 918.5,193.167 918.5,191.833 918.5,190.5 Z"/></g>
<g><path style="opacity:1" fill="#564ba9" d="M 934.5,189.5 C 935.5,189.5 936.5,189.5 937.5,189.5C 937.5,190.833 937.5,192.167 937.5,193.5C 936.5,193.5 935.5,193.5 934.5,193.5C 934.5,192.167 934.5,190.833 934.5,189.5 Z"/></g>
<g><path style="opacity:1" fill="#4f43a2" d="M 539.5,192.5 C 551.162,190.997 555.662,195.997 553,207.5C 550.212,211.748 548.545,216.414 548,221.5C 545.681,227.909 541.848,229.076 536.5,225C 534.866,224.506 533.199,224.34 531.5,224.5C 532.535,229.736 530.868,233.736 526.5,236.5C 522.799,234.804 521.132,231.804 521.5,227.5C 519.738,227.643 518.071,227.309 516.5,226.5C 515.5,224.833 514.167,223.5 512.5,222.5C 513.648,220.851 514.981,219.351 516.5,218C 519.367,217.971 521.867,217.138 524,215.5C 523.333,210.833 522.667,206.167 522,201.5C 525.579,199.484 529.413,198.151 533.5,197.5C 535.252,195.403 537.252,193.737 539.5,192.5 Z"/></g>
<g><path style="opacity:1" fill="#594caa" d="M 541.5,196.5 C 548.503,195.673 551.003,198.673 549,205.5C 548.751,206.624 548.251,207.624 547.5,208.5C 541.547,205.941 539.547,201.941 541.5,196.5 Z"/></g>
<g><path style="opacity:1" fill="#4f43a1" d="M 732.5,194.5 C 735.518,194.335 738.518,194.502 741.5,195C 743.324,196.989 745.324,198.823 747.5,200.5C 750.585,205.895 750.585,211.061 747.5,216C 746.552,216.483 745.552,216.649 744.5,216.5C 743.32,222.555 741.82,228.555 740,234.5C 739.375,237.706 737.709,238.706 735,237.5C 732.515,230.547 730.348,223.547 728.5,216.5C 727.448,216.649 726.448,216.483 725.5,216C 724.67,214.253 723.67,212.587 722.5,211C 724.032,208.039 724.866,204.872 725,201.5C 727.396,198.933 729.896,196.6 732.5,194.5 Z"/></g>
<g><path style="opacity:1" fill="#594eac" d="M 912.5,199.5 C 922.855,199.168 933.188,199.501 943.5,200.5C 938.333,200.833 933.167,201.167 928,201.5C 922.454,201.495 917.288,200.828 912.5,199.5 Z"/></g>
<g><path style="opacity:1" fill="#584baa" d="M 165.5,196.5 C 170.063,198.059 173.396,201.059 175.5,205.5C 172.507,208.585 169.174,209.085 165.5,207C 164.39,203.551 164.39,200.051 165.5,196.5 Z"/></g>
<g><path style="opacity:1" fill="#5a4dad" d="M 534.5,201.5 C 536.759,205.595 539.926,208.928 544,211.5C 544.667,212.5 544.667,213.5 544,214.5C 539.48,219.176 533.98,221.176 527.5,220.5C 527.286,213.134 529.619,206.801 534.5,201.5 Z"/></g>
<g><path style="opacity:1" fill="#594dac" d="M 735.5,198.5 C 742.927,199.083 745.594,202.916 743.5,210C 741.062,210.682 738.895,210.182 737,208.5C 729.302,212.464 726.968,210.464 730,202.5C 731.5,200.531 733.333,199.198 735.5,198.5 Z"/></g>
<g><path style="opacity:1" fill="#584dab" d="M 922.5,211.5 C 925.85,211.665 929.183,211.498 932.5,211C 933.711,210.107 933.711,209.274 932.5,208.5C 927.703,207.198 923.036,207.198 918.5,208.5C 917.357,208.092 916.357,207.425 915.5,206.5C 923.833,205.167 932.167,205.167 940.5,206.5C 935.555,212.3 929.555,213.967 922.5,211.5 Z"/></g>
<g><path style="opacity:1" fill="#5b4eaf" d="M 922.5,211.5 C 920.596,211.262 919.262,210.262 918.5,208.5C 923.036,207.198 927.703,207.198 932.5,208.5C 933.711,209.274 933.711,210.107 932.5,211C 929.183,211.498 925.85,211.665 922.5,211.5 Z"/></g>
<g><path style="opacity:1" fill="#594eac" d="M 733.5,216.5 C 735.924,216.192 738.257,216.526 740.5,217.5C 739.021,221.054 737.854,224.72 737,228.5C 734.908,224.803 733.741,220.803 733.5,216.5 Z"/></g>
<g><path style="opacity:1" fill="#5043a2" d="M 808.5,220.5 C 815.85,219.304 822.35,220.97 828,225.5C 829.782,227.939 830.449,230.606 830,233.5C 829.25,234.126 828.416,234.626 827.5,235C 828.891,236.02 830.391,236.853 832,237.5C 832.333,240.167 832.667,242.833 833,245.5C 835.039,247.874 837.372,249.874 840,251.5C 840.399,256.462 838.232,259.962 833.5,262C 819.895,266.442 811.395,261.609 808,247.5C 806.667,248.833 805.333,248.833 804,247.5C 798.417,237.344 799.917,228.344 808.5,220.5 Z"/></g>
<g><path style="opacity:1" fill="#594cab" d="M 816.5,224.5 C 818.681,224.284 820.347,225.117 821.5,227C 818.073,228.796 814.906,230.963 812,233.5C 809.385,229.412 807.219,229.746 805.5,234.5C 807.167,235.167 808.833,235.833 810.5,236.5C 809.103,238.982 808.269,241.648 808,244.5C 802.36,236.791 803.527,230.457 811.5,225.5C 812.386,226.325 812.719,227.325 812.5,228.5C 813.833,228.5 815.167,228.5 816.5,228.5C 816.5,227.167 816.5,225.833 816.5,224.5 Z"/></g>
<g><path style="opacity:1" fill="#4f43a2" d="M 1177.5,219.5 C 1194.61,221.606 1204.61,231.272 1207.5,248.5C 1207.45,251.551 1206.12,253.884 1203.5,255.5C 1193.52,258.882 1183.35,261.548 1173,263.5C 1170.85,263.357 1169.18,262.357 1168,260.5C 1168.28,247.141 1170.62,234.141 1175,221.5C 1175.99,220.934 1176.83,220.267 1177.5,219.5 Z"/></g>
<g><path style="opacity:1" fill="#5a4cab" d="M 1178.5,224.5 C 1193.84,226.343 1201.68,235.01 1202,250.5C 1198.73,237.406 1190.89,228.739 1178.5,224.5 Z"/></g>
<g><path style="opacity:1" fill="#5a4dac" d="M 819.5,233.5 C 820.496,233.414 821.329,233.748 822,234.5C 822.764,238.099 824.93,240.099 828.5,240.5C 828.296,246.018 830.296,250.518 834.5,254C 832.961,257.878 830.127,259.712 826,259.5C 822.871,259.671 820.037,258.838 817.5,257C 810.316,248.339 810.982,240.506 819.5,233.5 Z"/></g>
<g><path style="opacity:1" fill="#4f43a1" d="M 421.5,235.5 C 432.347,233.339 439.847,237.339 444,247.5C 444.283,251.133 445.117,254.633 446.5,258C 444.98,261.612 444.146,265.445 444,269.5C 442.64,271.105 441.14,272.605 439.5,274C 430.5,274.667 421.5,274.667 412.5,274C 411.272,273.221 410.272,272.221 409.5,271C 408.823,266.429 407.823,261.929 406.5,257.5C 406.895,249.261 410.228,242.428 416.5,237C 418.382,236.802 420.048,236.302 421.5,235.5 Z"/></g>
<g><path style="opacity:1" fill="#4f43a1" d="M 613.5,276.5 C 611.167,276.5 608.833,276.5 606.5,276.5C 604.628,274.955 603.628,272.955 603.5,270.5C 605.23,261.118 607.063,251.785 609,242.5C 608.943,237.046 611.443,233.713 616.5,232.5C 621.629,233.123 626.296,234.956 630.5,238C 640.449,245.847 644.116,255.847 641.5,268C 632.158,271.163 622.825,273.997 613.5,276.5 Z"/></g>
<g><path style="opacity:1" fill="#5345a4" d="M 817.5,236.5 C 820.91,236.384 822.244,238.05 821.5,241.5C 820.167,241.5 818.833,241.5 817.5,241.5C 817.5,239.833 817.5,238.167 817.5,236.5 Z"/></g>
<g><path style="opacity:1" fill="#5b4eae" d="M 421.5,239.5 C 431.892,238.011 437.892,242.344 439.5,252.5C 430.5,252.5 421.5,252.5 412.5,252.5C 413.504,246.822 416.504,242.489 421.5,239.5 Z"/></g>
<g><path style="opacity:1" fill="#5a4dac" d="M 1177.5,230.5 C 1190.15,232.962 1196.15,240.462 1195.5,253C 1192.61,253.631 1189.77,254.464 1187,255.5C 1184.78,251.875 1181.62,250.708 1177.5,252C 1176.03,253.552 1175.03,255.386 1174.5,257.5C 1173.73,258.711 1172.89,258.711 1172,257.5C 1171.42,254.743 1171.75,252.077 1173,249.5C 1175.07,248.636 1176.74,247.303 1178,245.5C 1178.68,241.944 1178.18,238.611 1176.5,235.5C 1176.73,233.793 1177.06,232.126 1177.5,230.5 Z"/></g>
<g><path style="opacity:1" fill="#5043a2" d="M 1183.5,238.5 C 1188.41,237.306 1191.41,239.139 1192.5,244C 1190.88,249.65 1187.71,250.817 1183,247.5C 1180.88,244.303 1181.05,241.303 1183.5,238.5 Z"/></g>
<g><path style="opacity:1" fill="#5042a1" d="M 823.5,244.5 C 824.833,244.5 826.167,244.5 827.5,244.5C 827.778,246.346 827.111,247.68 825.5,248.5C 823.889,247.68 823.222,246.346 823.5,244.5 Z"/></g>
<g><path style="opacity:1" fill="#5143a2" d="M 815.5,245.5 C 818.346,245.03 820.679,245.863 822.5,248C 821.372,250.065 819.706,250.732 817.5,250C 815.893,248.951 815.227,247.451 815.5,245.5 Z"/></g>
<g><path style="opacity:1" fill="#594dab" d="M 614.5,237.5 C 629.931,239.393 637.765,248.059 638,263.5C 634.767,250.444 626.934,241.778 614.5,237.5 Z"/></g>
<g><path style="opacity:1" fill="#5042a2" d="M 277.5,276.5 C 275.833,276.5 274.167,276.5 272.5,276.5C 273.457,274.19 274.457,271.856 275.5,269.5C 272.949,266.464 269.616,264.631 265.5,264C 263.288,263.211 261.288,263.378 259.5,264.5C 255.548,264.973 251.881,266.306 248.5,268.5C 250.297,270.955 251.63,273.622 252.5,276.5C 250.833,276.5 249.167,276.5 247.5,276.5C 245.933,273.033 244.099,269.7 242,266.5C 241.294,264.029 241.627,261.695 243,259.5C 251.393,252.553 260.893,250.72 271.5,254C 279.739,255.554 283.239,260.387 282,268.5C 280.223,271.059 278.723,273.726 277.5,276.5 Z"/></g>
<g><path style="opacity:1" fill="#5a4dac" d="M 613.5,244.5 C 625.076,246.075 631.742,252.742 633.5,264.5C 633.182,265.647 632.516,266.481 631.5,267C 628.964,267.339 626.464,267.839 624,268.5C 617.314,262.206 612.814,263.54 610.5,272.5C 609.009,271.652 608.342,270.319 608.5,268.5C 608.84,266.488 609.173,264.488 609.5,262.5C 614.346,261.491 616.18,258.491 615,253.5C 613.969,252.3 613.135,250.966 612.5,249.5C 613.046,247.865 613.38,246.199 613.5,244.5 Z"/></g>
<g><path style="opacity:1" fill="#4f43a3" d="M 620.5,251.5 C 625.39,250.887 628.056,253.054 628.5,258C 627.472,262.206 624.805,263.539 620.5,262C 616.713,258.589 616.713,255.089 620.5,251.5 Z"/></g>
<g><path style="opacity:1" fill="#4f43a3" d="M 825.5,251.5 C 826.833,251.5 828.167,251.5 829.5,251.5C 829.56,255.485 827.56,257.152 823.5,256.5C 823.365,254.446 824.032,252.779 825.5,251.5 Z"/></g>
<g><path style="opacity:1" fill="#5a4dac" d="M 1039.5,254.5 C 1040.5,254.414 1041.33,254.748 1042,255.5C 1042.45,259.138 1044.29,261.472 1047.5,262.5C 1047.27,265.249 1047.61,267.916 1048.5,270.5C 1047.75,270.736 1046.92,271.07 1046,271.5C 1045.51,273.134 1045.34,274.801 1045.5,276.5C 1044.83,276.5 1044.17,276.5 1043.5,276.5C 1044.73,268.737 1043.39,261.404 1039.5,254.5 Z"/></g>
<g><path style="opacity:1" fill="#4f43a1" d="M 106.5,276.5 C 102.167,276.5 97.8333,276.5 93.5,276.5C 94.1408,275.518 94.8075,274.518 95.5,273.5C 93.2192,272.738 91.8859,273.738 91.5,276.5C 89.8333,276.5 88.1667,276.5 86.5,276.5C 89.0265,271.299 93.0265,267.966 98.5,266.5C 98.3505,267.552 98.5172,268.552 99,269.5C 99.6667,267.833 99.6667,266.167 99,264.5C 97.9505,263.483 96.7839,263.316 95.5,264C 90.7421,267.338 87.0754,271.505 84.5,276.5C 82.5,276.5 80.5,276.5 78.5,276.5C 82.0656,271.427 86.2323,266.76 91,262.5C 91.5908,261.517 91.2575,260.85 90,260.5C 87.6701,262.479 85.3367,264.479 83,266.5C 80.2589,269.729 77.7589,273.062 75.5,276.5C 73.1667,276.5 70.8333,276.5 68.5,276.5C 74.266,269.896 80.266,263.396 86.5,257C 100.117,256.115 106.784,262.615 106.5,276.5 Z"/></g>
<g><path style="opacity:1" fill="#584dab" d="M 410.5,258.5 C 420.674,257.177 431.007,257.177 441.5,258.5C 431.106,259.807 420.773,259.807 410.5,258.5 Z"/></g>
<g><path style="opacity:1" fill="#4e43a1" d="M 1039.5,254.5 C 1043.39,261.404 1044.73,268.737 1043.5,276.5C 1031.17,276.5 1018.83,276.5 1006.5,276.5C 1005.39,274.693 1004.72,272.693 1004.5,270.5C 1005.61,264.466 1007.78,258.8 1011,253.5C 1020.84,245.266 1030.34,245.6 1039.5,254.5 Z"/></g>
<g><path style="opacity:1" fill="#5b4dae" d="M 1031.5,254.5 C 1036.1,256.563 1038.1,260.23 1037.5,265.5C 1028.83,265.5 1020.17,265.5 1011.5,265.5C 1011.19,261.468 1012.52,258.135 1015.5,255.5C 1021.03,255.821 1026.36,255.488 1031.5,254.5 Z"/></g>
<g><path style="opacity:1" fill="#594eac" d="M 1031.5,254.5 C 1026.36,255.488 1021.03,255.821 1015.5,255.5C 1017.76,253.245 1020.59,252.245 1024,252.5C 1026.82,252.408 1029.32,253.074 1031.5,254.5 Z"/></g>
<g><path style="opacity:1" fill="#584caa" d="M 257.5,256.5 C 265.713,255.626 272.713,257.96 278.5,263.5C 275.968,263.931 273.634,263.098 271.5,261C 262.669,258.134 254.502,259.301 247,264.5C 246.837,262.613 247.671,261.113 249.5,260C 252.374,259.058 255.04,257.891 257.5,256.5 Z"/></g>
<g><path style="opacity:1" fill="#584cab" d="M 78.5,276.5 C 77.5,276.5 76.5,276.5 75.5,276.5C 77.7589,273.062 80.2589,269.729 83,266.5C 85.3367,264.479 87.6701,262.479 90,260.5C 91.2575,260.85 91.5908,261.517 91,262.5C 86.2323,266.76 82.0656,271.427 78.5,276.5 Z"/></g>
<g><path style="opacity:1" fill="#594cab" d="M 259.5,264.5 C 261.288,263.378 263.288,263.211 265.5,264C 269.616,264.631 272.949,266.464 275.5,269.5C 274.457,271.856 273.457,274.19 272.5,276.5C 272.167,276.5 271.833,276.5 271.5,276.5C 271.657,275.127 271.49,273.793 271,272.5C 270.586,272.957 270.086,273.291 269.5,273.5C 267.414,272.511 265.747,271.178 264.5,269.5C 264.912,267.027 263.912,265.694 261.5,265.5C 261.158,264.662 260.492,264.328 259.5,264.5 Z"/></g>
<g><path style="opacity:1" fill="#5b4dae" d="M 259.5,264.5 C 260.492,264.328 261.158,264.662 261.5,265.5C 260.566,266.568 260.232,267.901 260.5,269.5C 261.833,269.5 263.167,269.5 264.5,269.5C 265.747,271.178 267.414,272.511 269.5,273.5C 270.086,273.291 270.586,272.957 271,272.5C 271.49,273.793 271.657,275.127 271.5,276.5C 265.167,276.5 258.833,276.5 252.5,276.5C 251.63,273.622 250.297,270.955 248.5,268.5C 251.881,266.306 255.548,264.973 259.5,264.5 Z"/></g>
<g><path style="opacity:1" fill="#5345a6" d="M 261.5,265.5 C 263.912,265.694 264.912,267.027 264.5,269.5C 263.167,269.5 261.833,269.5 260.5,269.5C 260.232,267.901 260.566,266.568 261.5,265.5 Z"/></g>
<g><path style="opacity:1" fill="#5b4dad" d="M 416.5,263.5 C 419.44,266.949 422.773,267.283 426.5,264.5C 429.5,267.167 432.5,267.167 435.5,264.5C 439.253,265.64 439.919,267.474 437.5,270C 430.167,270.667 422.833,270.667 415.5,270C 414.572,269.612 413.905,268.945 413.5,268C 414.729,266.614 415.729,265.114 416.5,263.5 Z"/></g>
<g><path style="opacity:1" fill="#5045a3" d="M 253.5,267.5 C 255.912,267.694 256.912,269.027 256.5,271.5C 255.167,271.5 253.833,271.5 252.5,271.5C 252.433,270.041 252.766,268.708 253.5,267.5 Z"/></g>
<g><path style="opacity:1" fill="#554aa8" d="M 86.5,276.5 C 85.8333,276.5 85.1667,276.5 84.5,276.5C 87.0754,271.505 90.7421,267.338 95.5,264C 96.7839,263.316 97.9505,263.483 99,264.5C 99.6667,266.167 99.6667,267.833 99,269.5C 98.5172,268.552 98.3505,267.552 98.5,266.5C 93.0265,267.966 89.0265,271.299 86.5,276.5 Z"/></g>
<g><path style="opacity:1" fill="#5143a2" d="M 268.5,268.5 C 269.5,268.5 270.5,268.5 271.5,268.5C 271.5,269.5 271.5,270.5 271.5,271.5C 270.5,271.5 269.5,271.5 268.5,271.5C 268.5,270.5 268.5,269.5 268.5,268.5 Z"/></g>
<g><path style="opacity:1" fill="#584dab" d="M 1039.5,271.5 C 1029.32,271.827 1019.32,271.494 1009.5,270.5C 1019.67,269.177 1030.01,269.177 1040.5,270.5C 1040.38,271.107 1040.04,271.44 1039.5,271.5 Z"/></g>
<g><path style="opacity:1" fill="#5449a7" d="M 1009.5,270.5 C 1019.32,271.494 1029.32,271.827 1039.5,271.5C 1029.33,272.823 1018.99,272.823 1008.5,271.5C 1008.62,270.893 1008.96,270.56 1009.5,270.5 Z"/></g>
<g><path style="opacity:1" fill="#594bac" d="M 93.5,276.5 C 92.8333,276.5 92.1667,276.5 91.5,276.5C 91.8859,273.738 93.2192,272.738 95.5,273.5C 94.8075,274.518 94.1408,275.518 93.5,276.5 Z"/></g>
</svg>
