<svg width="184" height="64" viewBox="0 0 184 64" fill="none" xmlns="http://www.w3.org/2000/svg">
<rect x="0.561523" y="0.275391" width="183.438" height="63.3696" rx="13.341" fill="#F5F5F5"/>
<g clip-path="url(#clip0_1_11410)">
<path d="M104.53 39.2333C104.071 40.282 103.528 41.2474 102.898 42.1349C102.04 43.3448 101.337 44.1823 100.796 44.6474C99.9564 45.4107 99.0569 45.8017 98.0938 45.8239C97.4024 45.8239 96.5685 45.6294 95.5979 45.2347C94.624 44.8419 93.7291 44.6474 92.9108 44.6474C92.0526 44.6474 91.1322 44.8419 90.1477 45.2347C89.1617 45.6294 88.3673 45.835 87.76 45.8554C86.8364 45.8943 85.9158 45.4923 84.9969 44.6474C84.4104 44.1415 83.6768 43.2744 82.798 42.046C81.8551 40.7341 81.0799 39.2129 80.4725 37.4787C79.8221 35.6054 79.4961 33.7915 79.4961 32.0353C79.4961 30.0237 79.9357 28.2887 80.8162 26.8347C81.5082 25.6669 82.4288 24.7457 83.581 24.0694C84.7332 23.3931 85.9782 23.0484 87.3189 23.0264C88.0525 23.0264 89.0146 23.2508 90.2101 23.6917C91.4022 24.1342 92.1676 24.3586 92.5032 24.3586C92.7542 24.3586 93.6045 24.0962 95.046 23.5732C96.4092 23.0881 97.5598 22.8872 98.5023 22.9664C101.056 23.1702 102.975 24.1657 104.251 25.9593C101.967 27.3278 100.837 29.2446 100.86 31.7035C100.88 33.6188 101.583 35.2126 102.964 36.4781C103.59 37.0655 104.289 37.5194 105.066 37.8418C104.898 38.3254 104.72 38.7886 104.53 39.2333ZM98.6728 16.4413C98.6728 17.9425 98.1182 19.3442 97.0126 20.6416C95.6784 22.1839 94.0647 23.0751 92.3147 22.9345C92.2924 22.7544 92.2795 22.5648 92.2795 22.3657C92.2795 20.9245 92.914 19.3822 94.0407 18.1211C94.6032 17.4826 95.3187 16.9517 96.1862 16.5282C97.052 16.111 97.8708 15.8803 98.641 15.8408C98.6634 16.0415 98.6728 16.2422 98.6728 16.4413V16.4413Z" fill="#323142"/>
</g>
<defs>
<clipPath id="clip0_1_11410">
<rect width="25.5702" height="30.0172" fill="white" transform="translate(79.4961 15.8398)"/>
</clipPath>
</defs>
</svg>
